{
	"patcher" : 	{
		"fileversion" : 1,
		"appversion" : 		{
			"major" : 6,
			"minor" : 1,
			"revision" : 2,
			"architecture" : "x86"
		}
,
		"rect" : [ 172.0, 69.0, 944.0, 697.0 ],
		"bglocked" : 0,
		"openinpresentation" : 0,
		"default_fontsize" : 12.0,
		"default_fontface" : 0,
		"default_fontname" : "Lucida Console",
		"gridonopen" : 0,
		"gridsize" : [ 15.0, 15.0 ],
		"gridsnaponopen" : 0,
		"statusbarvisible" : 2,
		"toolbarvisible" : 1,
		"boxanimatetime" : 200,
		"imprint" : 0,
		"enablehscroll" : 1,
		"enablevscroll" : 1,
		"devicewidth" : 0.0,
		"description" : "",
		"digest" : "",
		"tags" : "",
		"boxes" : [ 			{
				"box" : 				{
					"contdata" : 1,
					"id" : "obj-25",
					"maxclass" : "multislider",
					"numinlets" : 1,
					"numoutlets" : 2,
					"outlettype" : [ "", "" ],
					"parameter_enable" : 0,
					"patching_rect" : [ 404.808014, 308.248749, 81.471207, 146.147125 ],
					"setminmax" : [ 0.0, 1.0 ],
					"size" : 64
				}

			}
, 			{
				"box" : 				{
					"fontname" : "Lucida Console",
					"fontsize" : 12.0,
					"id" : "obj-26",
					"maxclass" : "newobj",
					"numinlets" : 1,
					"numoutlets" : 2,
					"outlettype" : [ "", "" ],
					"patching_rect" : [ 379.729156, 472.618896, 148.0, 18.0 ],
					"text" : "jit.fill MyMatrix 2"
				}

			}
, 			{
				"box" : 				{
					"contdata" : 1,
					"id" : "obj-24",
					"maxclass" : "multislider",
					"numinlets" : 1,
					"numoutlets" : 2,
					"outlettype" : [ "", "" ],
					"parameter_enable" : 0,
					"patching_rect" : [ 557.146301, 110.809158, 81.471207, 146.147125 ],
					"setminmax" : [ 0.0, 1.0 ],
					"size" : 64
				}

			}
, 			{
				"box" : 				{
					"contdata" : 1,
					"id" : "obj-22",
					"maxclass" : "multislider",
					"numinlets" : 1,
					"numoutlets" : 2,
					"outlettype" : [ "", "" ],
					"parameter_enable" : 0,
					"patching_rect" : [ 454.886871, 49.404419, 81.471207, 146.147125 ],
					"setminmax" : [ 0.0, 1.0 ],
					"size" : 64
				}

			}
, 			{
				"box" : 				{
					"fontname" : "Lucida Console",
					"fontsize" : 12.0,
					"id" : "obj-15",
					"maxclass" : "newobj",
					"numinlets" : 1,
					"numoutlets" : 2,
					"outlettype" : [ "", "" ],
					"patching_rect" : [ 532.067444, 275.179321, 148.0, 18.0 ],
					"text" : "jit.fill MyMatrix 1"
				}

			}
, 			{
				"box" : 				{
					"fontname" : "Lucida Console",
					"fontsize" : 12.0,
					"id" : "obj-11",
					"maxclass" : "newobj",
					"numinlets" : 1,
					"numoutlets" : 2,
					"outlettype" : [ "", "" ],
					"patching_rect" : [ 388.358093, 206.27005, 148.0, 18.0 ],
					"text" : "jit.fill MyMatrix 0"
				}

			}
, 			{
				"box" : 				{
					"bubble" : 1,
					"fontname" : "Lucida Console",
					"fontsize" : 12.0,
					"frgb" : 0.0,
					"id" : "obj-10",
					"linecount" : 2,
					"maxclass" : "comment",
					"numinlets" : 1,
					"numoutlets" : 0,
					"patching_rect" : [ 204.904022, 166.882721, 156.0, 34.0 ],
					"text" : "name, planes, type, dimensions"
				}

			}
, 			{
				"box" : 				{
					"fontname" : "Lucida Console",
					"fontsize" : 12.0,
					"id" : "obj-8",
					"maxclass" : "message",
					"numinlets" : 2,
					"numoutlets" : 1,
					"outlettype" : [ "" ],
					"patching_rect" : [ 221.296326, 63.520248, 184.0, 16.0 ],
					"text" : "setcell 0 0 val 1. 0. 0."
				}

			}
, 			{
				"box" : 				{
					"id" : "obj-6",
					"maxclass" : "button",
					"numinlets" : 1,
					"numoutlets" : 1,
					"outlettype" : [ "bang" ],
					"patching_rect" : [ 291.646729, 226.089188, 20.0, 20.0 ]
				}

			}
, 			{
				"box" : 				{
					"fontname" : "Lucida Console",
					"fontsize" : 12.0,
					"id" : "obj-4",
					"maxclass" : "message",
					"numinlets" : 2,
					"numoutlets" : 1,
					"outlettype" : [ "" ],
					"patching_rect" : [ 66.569283, 103.818024, 119.0, 16.0 ],
					"text" : "setall 0. 0. 0."
				}

			}
, 			{
				"box" : 				{
					"border" : 1.0,
					"id" : "obj-2",
					"maxclass" : "jit.pwindow",
					"numinlets" : 1,
					"numoutlets" : 2,
					"outlettype" : [ "", "" ],
					"patching_rect" : [ 78.37458, 308.248749, 225.481857, 148.108719 ]
				}

			}
, 			{
				"box" : 				{
					"fontname" : "Lucida Console",
					"fontsize" : 12.0,
					"id" : "obj-1",
					"maxclass" : "newobj",
					"numinlets" : 1,
					"numoutlets" : 2,
					"outlettype" : [ "jit_matrix", "" ],
					"patching_rect" : [ 127.551544, 270.02951, 227.0, 18.0 ],
					"text" : "jit.matrix MyMatrix 3 char 8 8"
				}

			}
 ],
		"lines" : [ 			{
				"patchline" : 				{
					"destination" : [ "obj-2", 0 ],
					"disabled" : 0,
					"hidden" : 0,
					"source" : [ "obj-1", 0 ]
				}

			}
, 			{
				"patchline" : 				{
					"destination" : [ "obj-6", 0 ],
					"disabled" : 0,
					"hidden" : 0,
					"source" : [ "obj-11", 0 ]
				}

			}
, 			{
				"patchline" : 				{
					"destination" : [ "obj-6", 0 ],
					"disabled" : 0,
					"hidden" : 0,
					"source" : [ "obj-15", 0 ]
				}

			}
, 			{
				"patchline" : 				{
					"destination" : [ "obj-11", 0 ],
					"disabled" : 0,
					"hidden" : 0,
					"source" : [ "obj-22", 0 ]
				}

			}
, 			{
				"patchline" : 				{
					"destination" : [ "obj-15", 0 ],
					"disabled" : 0,
					"hidden" : 0,
					"source" : [ "obj-24", 0 ]
				}

			}
, 			{
				"patchline" : 				{
					"destination" : [ "obj-26", 0 ],
					"disabled" : 0,
					"hidden" : 0,
					"source" : [ "obj-25", 0 ]
				}

			}
, 			{
				"patchline" : 				{
					"destination" : [ "obj-6", 0 ],
					"disabled" : 0,
					"hidden" : 0,
					"source" : [ "obj-26", 0 ]
				}

			}
, 			{
				"patchline" : 				{
					"destination" : [ "obj-1", 0 ],
					"disabled" : 0,
					"hidden" : 0,
					"source" : [ "obj-4", 0 ]
				}

			}
, 			{
				"patchline" : 				{
					"destination" : [ "obj-1", 0 ],
					"disabled" : 0,
					"hidden" : 0,
					"source" : [ "obj-6", 0 ]
				}

			}
, 			{
				"patchline" : 				{
					"destination" : [ "obj-1", 0 ],
					"disabled" : 0,
					"hidden" : 0,
					"source" : [ "obj-8", 0 ]
				}

			}
 ],
		"dependency_cache" : [  ]
	}

}
